Coordinates
version=1
nRows=10
nColumns=34
inDegrees=yes

Units are S.I. units (second, meters, Newtons, ...)
If the header above contains a line with 'inDegrees', this indicates whether rotational values are in degrees (yes) or radians (no).

endheader
time	pelvis_tilt	pelvis_list	pelvis_rotation	pelvis_tx	pelvis_ty	pelvis_tz	hip_flexion_r	hip_adduction_r	hip_rotation_r	knee_angle_r	ankle_angle_r	subtalar_angle_r	mtp_angle_r	hip_flexion_l	hip_adduction_l	hip_rotation_l	knee_angle_l	ankle_angle_l	subtalar_angle_l	mtp_angle_l	lumbar_extension	lumbar_bending	lumbar_rotation	arm_flex_r	arm_add_r	arm_rot_r	elbow_flex_r	pro_sup_r	arm_flex_l	arm_add_l	arm_rot_l	elbow_flex_l	pro_sup_l
      8.95000000	      6.36820481	    -10.11985684	    -45.53052797	      4.14900110	      1.01715174	      1.39896345	    -19.70545800	     -4.94552213	     -0.03565732	      9.62088334	     16.79844289	      0.37457047	      0.00000000	    -15.57872330	      8.56391299	      3.28519734	     16.01668286	     27.96756742	     -6.57813067	      0.00000000	     -0.00948209	      3.17297515	     -0.59442372	      9.22050545	    -13.15313417	     21.43758199	     98.64938709	    119.74817918	     -7.83716273	    -24.05061696	     20.36212332	    101.34250235	    119.74817918
      8.96666670	      6.10912732	    -10.65927146	    -45.84107969	      4.14774752	      1.01616478	      1.39835673	    -19.53200434	     -4.39076588	      0.52618589	     10.08292719	     18.03052523	      1.29438760	      0.00000000	    -14.32900200	      8.01285580	      2.64102920	     18.74847850	     28.62682456	     -6.58648191	      0.00000000	     -0.61559616	      3.61083835	     -0.37112986	     10.31297236	    -13.07570660	     21.04522800	     98.20224207	    119.74817918	     -7.08274664	    -24.12294544	     21.17400314	    100.36031019	    119.74817918
      8.98333330	      6.57910546	    -10.88311514	    -46.11233305	      4.14774730	      1.01629732	      1.39859051	    -20.18599046	     -4.63967842	      1.10826709	      9.78717898	     18.71030940	      1.76060878	      0.00000000	    -13.72885809	      8.29486571	      2.22653278	     20.95282424	     28.44264975	     -6.95031103	      0.00000000	     -1.28666801	      3.18666182	     -0.24756689	     11.28665468	    -12.76130460	     20.88576784	     97.43606880	    119.74817918	     -6.67655441	    -24.27137517	     21.69746965	     99.75161174	    119.74817918
      9.00000000	      6.89579945	    -11.61133265	    -46.12796690	      4.14700024	      1.01687806	      1.39739608	    -20.44713727	     -4.36252178	      1.35026078	     10.64209956	     19.57778339	      2.08015492	      0.00000000	    -13.28756557	      7.96372933	      1.75520075	     23.22253993	     28.14130672	     -7.25194168	      0.00000000	     -2.44755166	      3.30916749	     -0.25741396	     12.36311209	    -12.68109568	     20.96941070	     96.70787007	    119.74817918	     -5.67908855	    -24.50499830	     22.45581641	     99.11498977	    119.74817918
      9.01666670	      6.91882802	    -12.33531139	    -46.11805087	      4.14661780	      1.01789297	      1.39618507	    -20.02724947	     -3.87676552	      1.13381233	     12.30729663	     19.69446967	      2.42468978	      0.00000000	    -13.14766133	      7.45837203	      1.71331940	     24.52836486	     27.92546034	     -7.34538065	      0.00000000	     -3.46963405	      3.60168891	     -0.22021358	     13.00163370	    -12.49339875	     20.50735292	     96.30776879	    119.74817918	     -5.04595323	    -24.20188589	     22.47843416	     98.45686081	    119.74817918
      9.03333330	      6.77596785	    -13.02689762	    -45.98176887	      4.14636632	      1.01907292	      1.39461373	    -19.23799537	     -3.21699969	      0.64232437	     14.38332789	     19.46857480	      2.47830649	      0.00000000	    -13.29634859	      6.84850074	      1.91643288	     24.94359905	     27.67363622	     -7.31088817	      0.00000000	     -4.36140209	      4.03210260	     -0.21046548	     13.38314100	    -12.30978775	     19.91047224	     95.60251308	    119.74817918	     -4.43090533	    -23.83141353	     22.27429254	     97.81967711	    119.74817918
      9.05000000	      5.74986559	    -13.13807149	    -46.05911928	      4.14536809	      1.01778423	      1.39061578	    -16.33375612	     -2.85845189	     -2.32539551	     18.16897442	     21.17486800	      5.20065344	      0.00000000	    -11.36797530	      6.03662648	      1.50941883	     26.94379706	     28.44777258	     -7.65140961	      0.00000000	     -4.35481173	      5.01247699	      0.42400869	     13.75919607	    -12.86920763	     19.35510407	     95.06037064	    119.74817918	     -2.54206319	    -23.16862435	     23.12884288	     96.32120047	    119.74817918
      9.06666670	      5.64744506	    -13.41456809	    -45.31793867	      4.14545566	      1.01733060	      1.38668568	    -14.88759393	     -2.84457526	     -4.97502845	     21.02112190	     22.32661170	      6.16199885	      0.00000000	    -10.91150188	      5.67509529	      1.98801453	     27.78402076	     28.99177789	     -7.41757660	      0.00000000	     -4.97350970	      5.41442025	      0.10799564	     14.65178838	    -13.43680844	     19.92638325	     94.23949958	    119.74817918	     -0.82895118	    -22.94750099	     23.72112044	     95.51008566	    119.74817918
      9.08333330	      5.76203713	    -13.86744076	    -44.93740505	      4.14629484	      1.01727753	      1.38477522	    -14.61155047	     -2.68630866	     -5.93770636	     22.37154196	     23.26446982	      5.71809891	      0.00000000	    -11.13412771	      5.40093324	      2.20086481	     28.13851014	     29.33137999	     -7.36854450	      0.00000000	     -5.60582506	      5.79370374	      0.21048605	     15.19877870	    -13.93906004	     20.47163030	     93.97408526	    119.74817918	      0.60128184	    -22.41859288	     23.77062495	     94.86328986	    119.74817918
      9.10000000	      5.16492860	    -13.97256729	    -44.19433716	      4.14938693	      1.01611315	      1.38398262	    -14.16161214	     -2.38602546	     -8.66286604	     22.97371916	     24.84833804	      7.50767811	      0.00000000	    -10.32907601	      4.65715690	      2.37943400	     29.25658404	     30.36848773	     -6.51146769	      0.00000000	     -4.96007579	      6.56761746	     -0.17772787	     15.07867751	    -14.70264835	     21.16659271	     94.25184506	    119.74817918	      1.74408347	    -22.15835432	     24.18289548	     94.29777423	    119.74817918
